<svg width="120" height="30" viewBox="0 0 120 30" fill="none" xmlns="http://www.w3.org/2000/svg">
<path d="M8.86038 3.41886C9.54095 1.37715 11.4516 0 13.6038 0H106.396C108.548 0 110.459 1.37715 111.14 3.41886L117.806 23.4189C118.886 26.6565 116.476 30 113.063 30H6.93713C3.52434 30 1.11449 26.6565 2.19371 23.4189L8.86038 3.41886Z" fill="white"/>
<path fill-rule="evenodd" clip-rule="evenodd" d="M4.66667 16L0 30H120L115.333 16H4.66667Z" fill="white"/>
<path d="M42.0703 18.3955C42.0703 18.2178 42.043 18.0583 41.9883 17.917C41.9382 17.7712 41.8424 17.639 41.7012 17.5205C41.5599 17.3975 41.3617 17.2767 41.1064 17.1582C40.8512 17.0397 40.5208 16.9167 40.1152 16.7891C39.6641 16.6432 39.2357 16.4792 38.8301 16.2969C38.429 16.1146 38.0736 15.9027 37.7637 15.6611C37.4583 15.415 37.2168 15.1302 37.0391 14.8066C36.8659 14.4831 36.7793 14.1071 36.7793 13.6787C36.7793 13.264 36.8704 12.888 37.0527 12.5508C37.235 12.209 37.4902 11.9173 37.8184 11.6758C38.1465 11.4297 38.5339 11.2406 38.9805 11.1084C39.4316 10.9762 39.9261 10.9102 40.4639 10.9102C41.1976 10.9102 41.8379 11.0423 42.3848 11.3066C42.9316 11.571 43.3555 11.9333 43.6562 12.3936C43.9616 12.8538 44.1143 13.3802 44.1143 13.9727H42.0771C42.0771 13.681 42.0156 13.4258 41.8926 13.207C41.7741 12.9837 41.5918 12.8083 41.3457 12.6807C41.1042 12.5531 40.7988 12.4893 40.4297 12.4893C40.0742 12.4893 39.778 12.5439 39.541 12.6533C39.304 12.7581 39.1263 12.9017 39.0078 13.084C38.8893 13.2617 38.8301 13.4622 38.8301 13.6855C38.8301 13.8542 38.8711 14.0068 38.9531 14.1436C39.0397 14.2803 39.1673 14.4079 39.3359 14.5264C39.5046 14.6449 39.7119 14.7565 39.958 14.8613C40.2041 14.9661 40.4889 15.0687 40.8125 15.1689C41.3548 15.333 41.8311 15.5176 42.2412 15.7227C42.6559 15.9277 43.0023 16.1579 43.2803 16.4131C43.5583 16.6683 43.7679 16.9577 43.9092 17.2812C44.0505 17.6048 44.1211 17.9717 44.1211 18.3818C44.1211 18.8148 44.0368 19.2021 43.8682 19.5439C43.6995 19.8857 43.4557 20.1751 43.1367 20.4121C42.8177 20.6491 42.4372 20.8291 41.9951 20.9521C41.5531 21.0752 41.0586 21.1367 40.5117 21.1367C40.0195 21.1367 39.5342 21.0729 39.0557 20.9453C38.5771 20.8132 38.1419 20.6149 37.75 20.3506C37.3626 20.0863 37.0527 19.749 36.8203 19.3389C36.5879 18.9287 36.4717 18.4434 36.4717 17.8828H38.5293C38.5293 18.1927 38.5771 18.4548 38.6729 18.6689C38.7686 18.8831 38.903 19.0563 39.0762 19.1885C39.2539 19.3206 39.4635 19.4163 39.7051 19.4756C39.9512 19.5348 40.2201 19.5645 40.5117 19.5645C40.8672 19.5645 41.1589 19.5143 41.3867 19.4141C41.6191 19.3138 41.79 19.1748 41.8994 18.9971C42.0133 18.8193 42.0703 18.6188 42.0703 18.3955ZM48.7969 21.1367C48.2227 21.1367 47.7077 21.0456 47.252 20.8633C46.7962 20.6764 46.4089 20.4189 46.0898 20.0908C45.7754 19.7627 45.5339 19.3822 45.3652 18.9492C45.1966 18.5117 45.1123 18.0469 45.1123 17.5547V17.2812C45.1123 16.7207 45.1921 16.208 45.3516 15.7432C45.5111 15.2783 45.7389 14.875 46.0352 14.5332C46.3359 14.1914 46.7005 13.9294 47.1289 13.7471C47.5573 13.5602 48.0404 13.4668 48.5781 13.4668C49.1022 13.4668 49.5671 13.5534 49.9727 13.7266C50.3783 13.8997 50.7178 14.1458 50.9912 14.4648C51.2692 14.7839 51.4788 15.1667 51.6201 15.6133C51.7614 16.0553 51.832 16.5475 51.832 17.0898V17.9102H45.9531V16.5977H49.8975V16.4473C49.8975 16.1738 49.8473 15.93 49.7471 15.7158C49.6514 15.4971 49.5055 15.3239 49.3096 15.1963C49.1136 15.0687 48.863 15.0049 48.5576 15.0049C48.2979 15.0049 48.0745 15.0618 47.8877 15.1758C47.7008 15.2897 47.5482 15.4492 47.4297 15.6543C47.3158 15.8594 47.2292 16.1009 47.1699 16.3789C47.1152 16.6523 47.0879 16.9531 47.0879 17.2812V17.5547C47.0879 17.8509 47.1289 18.1243 47.2109 18.375C47.2975 18.6257 47.4183 18.8421 47.5732 19.0244C47.7327 19.2067 47.9242 19.348 48.1475 19.4482C48.3753 19.5485 48.6328 19.5986 48.9199 19.5986C49.2754 19.5986 49.6058 19.5303 49.9111 19.3936C50.221 19.2523 50.4876 19.0404 50.7109 18.7578L51.668 19.7969C51.513 20.0202 51.3011 20.2344 51.0322 20.4395C50.7679 20.6445 50.4489 20.8132 50.0752 20.9453C49.7015 21.0729 49.2754 21.1367 48.7969 21.1367ZM54.9219 15.2168V21H52.9531V13.6035H54.8057L54.9219 15.2168ZM57.1504 13.5557L57.1162 15.3809C57.0205 15.3672 56.9043 15.3558 56.7676 15.3467C56.6354 15.333 56.5146 15.3262 56.4053 15.3262C56.1273 15.3262 55.8857 15.3626 55.6807 15.4355C55.4801 15.5039 55.3115 15.6064 55.1748 15.7432C55.0426 15.8799 54.9424 16.0462 54.874 16.2422C54.8102 16.4382 54.7738 16.6615 54.7646 16.9121L54.3682 16.7891C54.3682 16.3105 54.416 15.8708 54.5117 15.4697C54.6074 15.0641 54.7464 14.7109 54.9287 14.4102C55.1156 14.1094 55.3434 13.877 55.6123 13.7129C55.8812 13.5488 56.1888 13.4668 56.5352 13.4668C56.6445 13.4668 56.7562 13.4759 56.8701 13.4941C56.984 13.5078 57.0775 13.5283 57.1504 13.5557ZM60.7188 19.5645L62.3594 13.6035H64.417L61.9219 21H60.6777L60.7188 19.5645ZM59.5908 13.6035L61.2383 19.5713L61.2725 21H60.0215L57.5264 13.6035H59.5908ZM67.377 13.6035V21H65.4014V13.6035H67.377ZM65.2783 11.6758C65.2783 11.3887 65.3786 11.1517 65.5791 10.9648C65.7796 10.778 66.0485 10.6846 66.3857 10.6846C66.7184 10.6846 66.985 10.778 67.1855 10.9648C67.3906 11.1517 67.4932 11.3887 67.4932 11.6758C67.4932 11.9629 67.3906 12.1999 67.1855 12.3867C66.985 12.5736 66.7184 12.667 66.3857 12.667C66.0485 12.667 65.7796 12.5736 65.5791 12.3867C65.3786 12.1999 65.2783 11.9629 65.2783 11.6758ZM72.0596 19.5986C72.3011 19.5986 72.5153 19.5531 72.7021 19.4619C72.889 19.3662 73.0348 19.234 73.1396 19.0654C73.249 18.8923 73.306 18.6895 73.3105 18.457H75.1631C75.1585 18.9766 75.0195 19.4391 74.7461 19.8447C74.4727 20.2458 74.1058 20.5625 73.6455 20.7949C73.1852 21.0228 72.6702 21.1367 72.1006 21.1367C71.5264 21.1367 71.0251 21.041 70.5967 20.8496C70.1729 20.6582 69.8197 20.3939 69.5371 20.0566C69.2546 19.7148 69.0426 19.3184 68.9014 18.8672C68.7601 18.4115 68.6895 17.9238 68.6895 17.4043V17.2061C68.6895 16.682 68.7601 16.1943 68.9014 15.7432C69.0426 15.2874 69.2546 14.891 69.5371 14.5537C69.8197 14.2119 70.1729 13.9453 70.5967 13.7539C71.0205 13.5625 71.5173 13.4668 72.0869 13.4668C72.693 13.4668 73.224 13.583 73.6797 13.8154C74.14 14.0479 74.5 14.3805 74.7598 14.8135C75.0241 15.2419 75.1585 15.75 75.1631 16.3379H73.3105C73.306 16.0918 73.2536 15.8685 73.1533 15.668C73.0576 15.4674 72.9163 15.3079 72.7295 15.1895C72.5472 15.0664 72.3216 15.0049 72.0527 15.0049C71.7656 15.0049 71.5309 15.0664 71.3486 15.1895C71.1663 15.3079 71.0251 15.472 70.9248 15.6816C70.8245 15.8867 70.7539 16.1214 70.7129 16.3857C70.6764 16.6455 70.6582 16.9189 70.6582 17.2061V17.4043C70.6582 17.6914 70.6764 17.9671 70.7129 18.2314C70.7493 18.4958 70.8177 18.7305 70.918 18.9355C71.0228 19.1406 71.1663 19.3024 71.3486 19.4209C71.5309 19.5394 71.7679 19.5986 72.0596 19.5986ZM71.3213 20.9727H72.8047L72.7295 21.376C72.9893 21.4215 73.2262 21.5309 73.4404 21.7041C73.6546 21.8773 73.7617 22.1621 73.7617 22.5586C73.7617 22.8001 73.7093 23.0189 73.6045 23.2148C73.5042 23.4108 73.3538 23.5794 73.1533 23.7207C72.9528 23.8665 72.7021 23.9759 72.4014 24.0488C72.1006 24.1263 71.7542 24.165 71.3623 24.165L71.3145 23.0713C71.4603 23.0713 71.5924 23.0508 71.7109 23.0098C71.8294 22.9688 71.9229 22.9049 71.9912 22.8184C72.0596 22.7363 72.0938 22.627 72.0938 22.4902C72.0938 22.3626 72.0596 22.2624 71.9912 22.1895C71.9229 22.1165 71.8158 22.0618 71.6699 22.0254C71.5286 21.9889 71.3418 21.9639 71.1094 21.9502L71.3213 20.9727ZM75.9902 17.377V17.2334C75.9902 16.6911 76.0677 16.1921 76.2227 15.7363C76.3776 15.276 76.6032 14.8773 76.8994 14.54C77.1956 14.2028 77.5602 13.9408 77.9932 13.7539C78.4261 13.5625 78.9229 13.4668 79.4834 13.4668C80.0439 13.4668 80.543 13.5625 80.9805 13.7539C81.418 13.9408 81.7848 14.2028 82.0811 14.54C82.3818 14.8773 82.6097 15.276 82.7646 15.7363C82.9196 16.1921 82.9971 16.6911 82.9971 17.2334V17.377C82.9971 17.9147 82.9196 18.4137 82.7646 18.874C82.6097 19.3298 82.3818 19.7285 82.0811 20.0703C81.7848 20.4076 81.4202 20.6696 80.9873 20.8564C80.5544 21.0433 80.0576 21.1367 79.4971 21.1367C78.9365 21.1367 78.4375 21.0433 78 20.8564C77.5671 20.6696 77.2002 20.4076 76.8994 20.0703C76.6032 19.7285 76.3776 19.3298 76.2227 18.874C76.0677 18.4137 75.9902 17.9147 75.9902 17.377ZM77.959 17.2334V17.377C77.959 17.6868 77.9863 17.9762 78.041 18.2451C78.0957 18.514 78.1823 18.751 78.3008 18.9561C78.4238 19.1566 78.5833 19.3138 78.7793 19.4277C78.9753 19.5417 79.2145 19.5986 79.4971 19.5986C79.7705 19.5986 80.0052 19.5417 80.2012 19.4277C80.3971 19.3138 80.5544 19.1566 80.6729 18.9561C80.7913 18.751 80.8779 18.514 80.9326 18.2451C80.9919 17.9762 81.0215 17.6868 81.0215 17.377V17.2334C81.0215 16.9326 80.9919 16.6501 80.9326 16.3857C80.8779 16.1169 80.7891 15.8799 80.666 15.6748C80.5475 15.4652 80.3903 15.3011 80.1943 15.1826C79.9984 15.0641 79.7614 15.0049 79.4834 15.0049C79.2054 15.0049 78.9684 15.0641 78.7725 15.1826C78.5811 15.3011 78.4238 15.4652 78.3008 15.6748C78.1823 15.8799 78.0957 16.1169 78.041 16.3857C77.9863 16.6501 77.959 16.9326 77.959 17.2334Z" fill="#10317A"/>
</svg>
