<svg width="120" height="30" viewBox="0 0 120 30" fill="none" xmlns="http://www.w3.org/2000/svg">
<path d="M8.86038 3.41886C9.54095 1.37715 11.4516 0 13.6038 0H106.396C108.548 0 110.459 1.37715 111.14 3.41886L117.806 23.4189C118.886 26.6565 116.476 30 113.063 30H6.93713C3.52434 30 1.11449 26.6565 2.19371 23.4189L8.86038 3.41886Z" fill="white"/>
<path fill-rule="evenodd" clip-rule="evenodd" d="M4.66667 16L0 30H120L115.333 16H4.66667Z" fill="white"/>
<path d="M34.8252 11.0469H36.5615L39.1182 18.3545L41.6748 11.0469H43.4111L39.8154 21H38.4209L34.8252 11.0469ZM33.8887 11.0469H35.6182L35.9326 18.1699V21H33.8887V11.0469ZM42.6182 11.0469H44.3545V21H42.3037V18.1699L42.6182 11.0469ZM50.0215 19.332V16.0371C50.0215 15.8001 49.9827 15.5973 49.9053 15.4287C49.8278 15.2555 49.707 15.1211 49.543 15.0254C49.3835 14.9297 49.1761 14.8818 48.9209 14.8818C48.7021 14.8818 48.513 14.9206 48.3535 14.998C48.194 15.071 48.071 15.1781 47.9844 15.3193C47.8978 15.4561 47.8545 15.6178 47.8545 15.8047H45.8857C45.8857 15.4902 45.9587 15.1917 46.1045 14.9092C46.2503 14.6266 46.4622 14.3783 46.7402 14.1641C47.0182 13.9453 47.3486 13.7744 47.7314 13.6514C48.1188 13.5283 48.5518 13.4668 49.0303 13.4668C49.6045 13.4668 50.1149 13.5625 50.5615 13.7539C51.0081 13.9453 51.359 14.2324 51.6143 14.6152C51.874 14.998 52.0039 15.4766 52.0039 16.0508V19.2158C52.0039 19.6214 52.029 19.9541 52.0791 20.2139C52.1292 20.4691 52.2021 20.6924 52.2979 20.8838V21H50.3086C50.2129 20.7995 50.14 20.5488 50.0898 20.248C50.0443 19.9427 50.0215 19.6374 50.0215 19.332ZM50.2812 16.4951L50.2949 17.6094H49.1943C48.9346 17.6094 48.709 17.639 48.5176 17.6982C48.3262 17.7575 48.1689 17.8418 48.0459 17.9512C47.9229 18.056 47.8317 18.179 47.7725 18.3203C47.7178 18.4616 47.6904 18.6165 47.6904 18.7852C47.6904 18.9538 47.7292 19.1064 47.8066 19.2432C47.8841 19.3753 47.9958 19.4801 48.1416 19.5576C48.2874 19.6305 48.4583 19.667 48.6543 19.667C48.9505 19.667 49.208 19.6077 49.4268 19.4893C49.6455 19.3708 49.8141 19.2249 49.9326 19.0518C50.0557 18.8786 50.1195 18.7145 50.124 18.5596L50.6436 19.3936C50.5706 19.5804 50.4704 19.7741 50.3428 19.9746C50.2197 20.1751 50.0625 20.3643 49.8711 20.542C49.6797 20.7152 49.4495 20.8587 49.1807 20.9727C48.9118 21.082 48.5928 21.1367 48.2236 21.1367C47.7542 21.1367 47.3281 21.0433 46.9453 20.8564C46.5671 20.665 46.2663 20.403 46.043 20.0703C45.8242 19.7331 45.7148 19.3503 45.7148 18.9219C45.7148 18.5345 45.7878 18.1904 45.9336 17.8896C46.0794 17.5889 46.2936 17.3359 46.5762 17.1309C46.8633 16.9212 47.221 16.764 47.6494 16.6592C48.0778 16.5498 48.5745 16.4951 49.1396 16.4951H50.2812ZM57.1445 13.6035V14.998H52.8379V13.6035H57.1445ZM53.9043 11.7783H55.873V18.7715C55.873 18.9857 55.9004 19.1497 55.9551 19.2637C56.0143 19.3776 56.1009 19.4574 56.2148 19.5029C56.3288 19.5439 56.4723 19.5645 56.6455 19.5645C56.7686 19.5645 56.8779 19.5599 56.9736 19.5508C57.0739 19.5371 57.1582 19.5234 57.2266 19.5098L57.2334 20.959C57.0648 21.0137 56.8825 21.057 56.6865 21.0889C56.4906 21.1208 56.2741 21.1367 56.0371 21.1367C55.6042 21.1367 55.2259 21.0661 54.9023 20.9248C54.5833 20.779 54.3372 20.5465 54.1641 20.2275C53.9909 19.9085 53.9043 19.4893 53.9043 18.9697V11.7783ZM61.6699 21.1367C61.0957 21.1367 60.5807 21.0456 60.125 20.8633C59.6693 20.6764 59.2819 20.4189 58.9629 20.0908C58.6484 19.7627 58.4069 19.3822 58.2383 18.9492C58.0697 18.5117 57.9854 18.0469 57.9854 17.5547V17.2812C57.9854 16.7207 58.0651 16.208 58.2246 15.7432C58.3841 15.2783 58.612 14.875 58.9082 14.5332C59.209 14.1914 59.5736 13.9294 60.002 13.7471C60.4303 13.5602 60.9134 13.4668 61.4512 13.4668C61.9753 13.4668 62.4401 13.5534 62.8457 13.7266C63.2513 13.8997 63.5908 14.1458 63.8643 14.4648C64.1423 14.7839 64.3519 15.1667 64.4932 15.6133C64.6344 16.0553 64.7051 16.5475 64.7051 17.0898V17.9102H58.8262V16.5977H62.7705V16.4473C62.7705 16.1738 62.7204 15.93 62.6201 15.7158C62.5244 15.4971 62.3786 15.3239 62.1826 15.1963C61.9867 15.0687 61.736 15.0049 61.4307 15.0049C61.1709 15.0049 60.9476 15.0618 60.7607 15.1758C60.5739 15.2897 60.4212 15.4492 60.3027 15.6543C60.1888 15.8594 60.1022 16.1009 60.043 16.3789C59.9883 16.6523 59.9609 16.9531 59.9609 17.2812V17.5547C59.9609 17.8509 60.002 18.1243 60.084 18.375C60.1706 18.6257 60.2913 18.8421 60.4463 19.0244C60.6058 19.2067 60.7972 19.348 61.0205 19.4482C61.2484 19.5485 61.5059 19.5986 61.793 19.5986C62.1484 19.5986 62.4788 19.5303 62.7842 19.3936C63.0941 19.2523 63.3607 19.0404 63.584 18.7578L64.541 19.7969C64.3861 20.0202 64.1742 20.2344 63.9053 20.4395C63.641 20.6445 63.3219 20.8132 62.9482 20.9453C62.5745 21.0729 62.1484 21.1367 61.6699 21.1367ZM67.7949 15.2168V21H65.8262V13.6035H67.6787L67.7949 15.2168ZM70.0234 13.5557L69.9893 15.3809C69.8936 15.3672 69.7773 15.3558 69.6406 15.3467C69.5085 15.333 69.3877 15.3262 69.2783 15.3262C69.0003 15.3262 68.7588 15.3626 68.5537 15.4355C68.3532 15.5039 68.1846 15.6064 68.0479 15.7432C67.9157 15.8799 67.8154 16.0462 67.7471 16.2422C67.6833 16.4382 67.6468 16.6615 67.6377 16.9121L67.2412 16.7891C67.2412 16.3105 67.2891 15.8708 67.3848 15.4697C67.4805 15.0641 67.6195 14.7109 67.8018 14.4102C67.9886 14.1094 68.2165 13.877 68.4854 13.7129C68.7542 13.5488 69.0618 13.4668 69.4082 13.4668C69.5176 13.4668 69.6292 13.4759 69.7432 13.4941C69.8571 13.5078 69.9505 13.5283 70.0234 13.5557ZM73.0312 13.6035V21H71.0557V13.6035H73.0312ZM70.9326 11.6758C70.9326 11.3887 71.0329 11.1517 71.2334 10.9648C71.4339 10.778 71.7028 10.6846 72.04 10.6846C72.3727 10.6846 72.6393 10.778 72.8398 10.9648C73.0449 11.1517 73.1475 11.3887 73.1475 11.6758C73.1475 11.9629 73.0449 12.1999 72.8398 12.3867C72.6393 12.5736 72.3727 12.667 72.04 12.667C71.7028 12.667 71.4339 12.5736 71.2334 12.3867C71.0329 12.1999 70.9326 11.9629 70.9326 11.6758ZM78.6504 19.332V16.0371C78.6504 15.8001 78.6117 15.5973 78.5342 15.4287C78.4567 15.2555 78.3359 15.1211 78.1719 15.0254C78.0124 14.9297 77.805 14.8818 77.5498 14.8818C77.3311 14.8818 77.1419 14.9206 76.9824 14.998C76.8229 15.071 76.6999 15.1781 76.6133 15.3193C76.5267 15.4561 76.4834 15.6178 76.4834 15.8047H74.5146C74.5146 15.4902 74.5876 15.1917 74.7334 14.9092C74.8792 14.6266 75.0911 14.3783 75.3691 14.1641C75.6471 13.9453 75.9775 13.7744 76.3604 13.6514C76.7477 13.5283 77.1807 13.4668 77.6592 13.4668C78.2334 13.4668 78.7438 13.5625 79.1904 13.7539C79.637 13.9453 79.988 14.2324 80.2432 14.6152C80.5029 14.998 80.6328 15.4766 80.6328 16.0508V19.2158C80.6328 19.6214 80.6579 19.9541 80.708 20.2139C80.7581 20.4691 80.8311 20.6924 80.9268 20.8838V21H78.9375C78.8418 20.7995 78.7689 20.5488 78.7188 20.248C78.6732 19.9427 78.6504 19.6374 78.6504 19.332ZM78.9102 16.4951L78.9238 17.6094H77.8232C77.5635 17.6094 77.3379 17.639 77.1465 17.6982C76.9551 17.7575 76.7979 17.8418 76.6748 17.9512C76.5518 18.056 76.4606 18.179 76.4014 18.3203C76.3467 18.4616 76.3193 18.6165 76.3193 18.7852C76.3193 18.9538 76.3581 19.1064 76.4355 19.2432C76.513 19.3753 76.6247 19.4801 76.7705 19.5576C76.9163 19.6305 77.0872 19.667 77.2832 19.667C77.5794 19.667 77.8369 19.6077 78.0557 19.4893C78.2744 19.3708 78.443 19.2249 78.5615 19.0518C78.6846 18.8786 78.7484 18.7145 78.7529 18.5596L79.2725 19.3936C79.1995 19.5804 79.0993 19.7741 78.9717 19.9746C78.8486 20.1751 78.6914 20.3643 78.5 20.542C78.3086 20.7152 78.0785 20.8587 77.8096 20.9727C77.5407 21.082 77.2217 21.1367 76.8525 21.1367C76.3831 21.1367 75.957 21.0433 75.5742 20.8564C75.196 20.665 74.8952 20.403 74.6719 20.0703C74.4531 19.7331 74.3438 19.3503 74.3438 18.9219C74.3438 18.5345 74.4167 18.1904 74.5625 17.8896C74.7083 17.5889 74.9225 17.3359 75.2051 17.1309C75.4922 16.9212 75.8499 16.764 76.2783 16.6592C76.7067 16.5498 77.2035 16.4951 77.7686 16.4951H78.9102ZM84.2285 10.5V21H82.2529V10.5H84.2285Z" fill="#10317A"/>
</svg>
